# xmcd CD database file
#
# Track frame offsets:
#	150
#	42837
#	54011
#	77428
#	102120
#	126367
#	155190
#	180142
#	193005
#	223724
#
# Disc length: 3324 seconds
#
# Revision: 0
# Processed by: cddbd v1.5.2PL0 Copyright (c) Steve Scherf et al.
# Submitted via: CDex 1.70beta2
#
DISCID=7a0cfa0a
DTITLE=Lou Colombo - Monday Night Jazz
DYEAR=2004
DGENRE=Jazz
TTITLE0=Drum Boogie - Perdido
TTITLE1=Lou Colombo's Roadhouse Band
TTITLE2=Jazz Me Blues
TTITLE3=Tenderly
TTITLE4=Little Rock Gettaway
TTITLE5=Cute
TTITLE6=Speak Low
TTITLE7=All That Jazz
TTITLE8=It Might As Well Be Spring
TTITLE9=Green Dolphin St. - When The Saints Go Marching In
EXTD=YEAR: 2004
EXTT0=
EXTT1=
EXTT2=
EXTT3=
EXTT4=
EXTT5=
EXTT6=
EXTT7=
EXTT8=
EXTT9=
PLAYORDER=
